<mxfile host="app.diagrams.net" agent="Mozilla/5.0 (Windows NT 10.0; Win64; x64) AppleWebKit/537.36 (KHTML, like Gecko) Chrome/136.0.0.0 Safari/537.36" version="26.2.14">
  <diagram name="Pagina-1" id="ZFLAWk3-B_Z5dngLXTal">
    <mxGraphModel dx="3862" dy="2919" grid="1" gridSize="10" guides="1" tooltips="1" connect="1" arrows="1" fold="1" page="1" pageScale="1" pageWidth="827" pageHeight="1169" math="0" shadow="0">
      <root>
        <mxCell id="0" />
        <mxCell id="1" parent="0" />
        <mxCell id="VLlH7Ppr8rD8z25U6Jns-20" value="" style="whiteSpace=wrap;html=1;aspect=fixed;" vertex="1" parent="1">
          <mxGeometry x="290" y="75" width="330" height="330" as="geometry" />
        </mxCell>
        <mxCell id="VLlH7Ppr8rD8z25U6Jns-21" value="Server&lt;div&gt;Start&lt;/div&gt;" style="html=1;verticalAlign=bottom;startArrow=oval;startFill=1;endArrow=block;startSize=8;curved=0;rounded=0;entryX=0;entryY=0.5;entryDx=0;entryDy=0;entryPerimeter=0;" edge="1" parent="1">
          <mxGeometry width="60" relative="1" as="geometry">
            <mxPoint x="-20" y="240" as="sourcePoint" />
            <mxPoint x="100" y="240" as="targetPoint" />
          </mxGeometry>
        </mxCell>
        <mxCell id="VLlH7Ppr8rD8z25U6Jns-36" value="Lobby" style="text;html=1;align=center;verticalAlign=middle;whiteSpace=wrap;rounded=0;" vertex="1" parent="1">
          <mxGeometry x="300" y="80" width="60" height="30" as="geometry" />
        </mxCell>
        <UserObject label="Game created" treeRoot="1" id="VLlH7Ppr8rD8z25U6Jns-38">
          <mxCell style="whiteSpace=wrap;html=1;align=center;treeFolding=1;treeMoving=1;newEdgeStyle={&quot;edgeStyle&quot;:&quot;elbowEdgeStyle&quot;,&quot;startArrow&quot;:&quot;none&quot;,&quot;endArrow&quot;:&quot;none&quot;};" vertex="1" parent="1">
            <mxGeometry x="720" y="210" width="120" height="60" as="geometry" />
          </mxCell>
        </UserObject>
        <mxCell id="VLlH7Ppr8rD8z25U6Jns-40" value="" style="endArrow=classic;html=1;rounded=0;entryX=0;entryY=0.5;entryDx=0;entryDy=0;exitX=1;exitY=0.5;exitDx=0;exitDy=0;" edge="1" parent="1" source="VLlH7Ppr8rD8z25U6Jns-38" target="VLlH7Ppr8rD8z25U6Jns-37">
          <mxGeometry width="50" height="50" relative="1" as="geometry">
            <mxPoint x="670" y="310" as="sourcePoint" />
            <mxPoint x="720" y="260" as="targetPoint" />
          </mxGeometry>
        </mxCell>
        <mxCell id="VLlH7Ppr8rD8z25U6Jns-45" value="" style="swimlane;startSize=0;fillColor=light-dark(#ffffff, #ededed);gradientColor=none;" vertex="1" parent="1">
          <mxGeometry x="690" y="-100" width="1500" height="1250" as="geometry" />
        </mxCell>
        <UserObject label="Waiting Player 1 move" treeRoot="1" id="VLlH7Ppr8rD8z25U6Jns-37">
          <mxCell style="whiteSpace=wrap;html=1;align=center;treeFolding=1;treeMoving=1;newEdgeStyle={&quot;edgeStyle&quot;:&quot;elbowEdgeStyle&quot;,&quot;startArrow&quot;:&quot;none&quot;,&quot;endArrow&quot;:&quot;none&quot;};" vertex="1" parent="VLlH7Ppr8rD8z25U6Jns-45">
            <mxGeometry x="210" y="210" width="120" height="60" as="geometry" />
          </mxCell>
        </UserObject>
        <mxCell id="VLlH7Ppr8rD8z25U6Jns-60" value="" style="rhombus;whiteSpace=wrap;html=1;" vertex="1" parent="VLlH7Ppr8rD8z25U6Jns-45">
          <mxGeometry x="590" y="200" width="80" height="80" as="geometry" />
        </mxCell>
        <mxCell id="VLlH7Ppr8rD8z25U6Jns-63" value="" style="endArrow=classic;html=1;rounded=0;entryX=0;entryY=0.5;entryDx=0;entryDy=0;exitX=1;exitY=0.5;exitDx=0;exitDy=0;" edge="1" parent="VLlH7Ppr8rD8z25U6Jns-45" source="VLlH7Ppr8rD8z25U6Jns-37" target="VLlH7Ppr8rD8z25U6Jns-60">
          <mxGeometry width="50" height="50" relative="1" as="geometry">
            <mxPoint x="260" y="305" as="sourcePoint" />
            <mxPoint x="310" y="255" as="targetPoint" />
          </mxGeometry>
        </mxCell>
        <UserObject label="Error" treeRoot="1" id="VLlH7Ppr8rD8z25U6Jns-64">
          <mxCell style="whiteSpace=wrap;html=1;align=center;treeFolding=1;treeMoving=1;newEdgeStyle={&quot;edgeStyle&quot;:&quot;elbowEdgeStyle&quot;,&quot;startArrow&quot;:&quot;none&quot;,&quot;endArrow&quot;:&quot;none&quot;};" vertex="1" parent="VLlH7Ppr8rD8z25U6Jns-45">
            <mxGeometry x="691" y="55" width="120" height="60" as="geometry" />
          </mxCell>
        </UserObject>
        <mxCell id="VLlH7Ppr8rD8z25U6Jns-66" value="" style="endArrow=classic;html=1;rounded=0;exitX=0.5;exitY=0;exitDx=0;exitDy=0;entryX=0.545;entryY=0.973;entryDx=0;entryDy=0;entryPerimeter=0;" edge="1" parent="VLlH7Ppr8rD8z25U6Jns-45" source="VLlH7Ppr8rD8z25U6Jns-60" target="VLlH7Ppr8rD8z25U6Jns-64">
          <mxGeometry width="50" height="50" relative="1" as="geometry">
            <mxPoint x="620" y="165" as="sourcePoint" />
            <mxPoint x="670" y="115" as="targetPoint" />
            <Array as="points">
              <mxPoint x="630" y="155" />
              <mxPoint x="756" y="155" />
            </Array>
          </mxGeometry>
        </mxCell>
        <mxCell id="VLlH7Ppr8rD8z25U6Jns-67" value="false" style="text;html=1;align=center;verticalAlign=middle;whiteSpace=wrap;rounded=0;" vertex="1" parent="VLlH7Ppr8rD8z25U6Jns-45">
          <mxGeometry x="631" y="125" width="60" height="30" as="geometry" />
        </mxCell>
        <mxCell id="VLlH7Ppr8rD8z25U6Jns-68" value="" style="endArrow=classic;html=1;rounded=0;exitX=0.5;exitY=1;exitDx=0;exitDy=0;entryX=0;entryY=0.5;entryDx=0;entryDy=0;" edge="1" parent="VLlH7Ppr8rD8z25U6Jns-45" source="VLlH7Ppr8rD8z25U6Jns-60" target="VLlH7Ppr8rD8z25U6Jns-69">
          <mxGeometry width="50" height="50" relative="1" as="geometry">
            <mxPoint x="480" y="275" as="sourcePoint" />
            <mxPoint x="530" y="225" as="targetPoint" />
            <Array as="points">
              <mxPoint x="630" y="315" />
            </Array>
          </mxGeometry>
        </mxCell>
        <UserObject label="Update Table" treeRoot="1" id="VLlH7Ppr8rD8z25U6Jns-69">
          <mxCell style="whiteSpace=wrap;html=1;align=center;treeFolding=1;treeMoving=1;newEdgeStyle={&quot;edgeStyle&quot;:&quot;elbowEdgeStyle&quot;,&quot;startArrow&quot;:&quot;none&quot;,&quot;endArrow&quot;:&quot;none&quot;};" vertex="1" parent="VLlH7Ppr8rD8z25U6Jns-45">
            <mxGeometry x="691" y="285" width="120" height="60" as="geometry" />
          </mxCell>
        </UserObject>
        <mxCell id="VLlH7Ppr8rD8z25U6Jns-70" value="true" style="text;html=1;align=center;verticalAlign=middle;whiteSpace=wrap;rounded=0;" vertex="1" parent="VLlH7Ppr8rD8z25U6Jns-45">
          <mxGeometry x="631" y="315" width="60" height="30" as="geometry" />
        </mxCell>
        <mxCell id="VLlH7Ppr8rD8z25U6Jns-75" value="" style="swimlane;startSize=0;" vertex="1" parent="VLlH7Ppr8rD8z25U6Jns-45">
          <mxGeometry x="500" y="40" width="620" height="490" as="geometry" />
        </mxCell>
        <mxCell id="VLlH7Ppr8rD8z25U6Jns-61" value="is Valid?" style="text;html=1;align=center;verticalAlign=middle;whiteSpace=wrap;rounded=0;" vertex="1" parent="VLlH7Ppr8rD8z25U6Jns-75">
          <mxGeometry x="21" y="170" width="60" height="30" as="geometry" />
        </mxCell>
        <mxCell id="VLlH7Ppr8rD8z25U6Jns-77" value="Check Move" style="text;html=1;align=center;verticalAlign=middle;whiteSpace=wrap;rounded=0;" vertex="1" parent="VLlH7Ppr8rD8z25U6Jns-75">
          <mxGeometry x="10" y="15" width="60" height="30" as="geometry" />
        </mxCell>
        <mxCell id="VLlH7Ppr8rD8z25U6Jns-91" value="" style="endArrow=none;html=1;rounded=0;" edge="1" parent="VLlH7Ppr8rD8z25U6Jns-75">
          <mxGeometry width="50" height="50" relative="1" as="geometry">
            <mxPoint x="310" y="45" as="sourcePoint" />
            <mxPoint x="330" y="410" as="targetPoint" />
            <Array as="points">
              <mxPoint x="570" y="45" />
              <mxPoint x="570" y="410" />
            </Array>
          </mxGeometry>
        </mxCell>
        <mxCell id="VLlH7Ppr8rD8z25U6Jns-79" value="Give Control" style="text;html=1;align=center;verticalAlign=middle;whiteSpace=wrap;rounded=0;rotation=-60;" vertex="1" parent="VLlH7Ppr8rD8z25U6Jns-45">
          <mxGeometry x="136" y="268" width="60" height="30" as="geometry" />
        </mxCell>
        <mxCell id="VLlH7Ppr8rD8z25U6Jns-80" value="" style="swimlane;startSize=0;" vertex="1" parent="VLlH7Ppr8rD8z25U6Jns-45">
          <mxGeometry x="761" y="580" width="660" height="490" as="geometry" />
        </mxCell>
        <mxCell id="VLlH7Ppr8rD8z25U6Jns-82" value="Check Player" style="text;html=1;align=center;verticalAlign=middle;whiteSpace=wrap;rounded=0;" vertex="1" parent="VLlH7Ppr8rD8z25U6Jns-80">
          <mxGeometry x="10" y="20" width="60" height="30" as="geometry" />
        </mxCell>
        <mxCell id="VLlH7Ppr8rD8z25U6Jns-83" value="" style="rhombus;whiteSpace=wrap;html=1;" vertex="1" parent="VLlH7Ppr8rD8z25U6Jns-80">
          <mxGeometry x="290" y="80" width="80" height="80" as="geometry" />
        </mxCell>
        <mxCell id="VLlH7Ppr8rD8z25U6Jns-86" value="is Player1?" style="text;html=1;align=center;verticalAlign=middle;whiteSpace=wrap;rounded=0;" vertex="1" parent="VLlH7Ppr8rD8z25U6Jns-80">
          <mxGeometry x="270" y="40" width="60" height="30" as="geometry" />
        </mxCell>
        <mxCell id="VLlH7Ppr8rD8z25U6Jns-93" value="" style="rhombus;whiteSpace=wrap;html=1;" vertex="1" parent="VLlH7Ppr8rD8z25U6Jns-80">
          <mxGeometry x="130" y="280" width="80" height="80" as="geometry" />
        </mxCell>
        <mxCell id="VLlH7Ppr8rD8z25U6Jns-94" value="" style="rhombus;whiteSpace=wrap;html=1;" vertex="1" parent="VLlH7Ppr8rD8z25U6Jns-80">
          <mxGeometry x="430" y="280" width="80" height="80" as="geometry" />
        </mxCell>
        <mxCell id="VLlH7Ppr8rD8z25U6Jns-96" value="" style="endArrow=classic;html=1;rounded=0;exitX=1;exitY=0.5;exitDx=0;exitDy=0;entryX=0.5;entryY=0;entryDx=0;entryDy=0;" edge="1" parent="VLlH7Ppr8rD8z25U6Jns-80" source="VLlH7Ppr8rD8z25U6Jns-83" target="VLlH7Ppr8rD8z25U6Jns-94">
          <mxGeometry width="50" height="50" relative="1" as="geometry">
            <mxPoint x="400" y="270" as="sourcePoint" />
            <mxPoint x="450" y="220" as="targetPoint" />
            <Array as="points">
              <mxPoint x="470" y="120" />
            </Array>
          </mxGeometry>
        </mxCell>
        <mxCell id="VLlH7Ppr8rD8z25U6Jns-97" value="" style="endArrow=classic;html=1;rounded=0;entryX=0.5;entryY=0;entryDx=0;entryDy=0;exitX=0;exitY=0.5;exitDx=0;exitDy=0;" edge="1" parent="VLlH7Ppr8rD8z25U6Jns-80" source="VLlH7Ppr8rD8z25U6Jns-83" target="VLlH7Ppr8rD8z25U6Jns-93">
          <mxGeometry width="50" height="50" relative="1" as="geometry">
            <mxPoint x="400" y="270" as="sourcePoint" />
            <mxPoint x="450" y="220" as="targetPoint" />
            <Array as="points">
              <mxPoint x="170" y="120" />
            </Array>
          </mxGeometry>
        </mxCell>
        <mxCell id="VLlH7Ppr8rD8z25U6Jns-98" value="true" style="text;html=1;align=center;verticalAlign=middle;whiteSpace=wrap;rounded=0;" vertex="1" parent="VLlH7Ppr8rD8z25U6Jns-80">
          <mxGeometry x="200" y="100" width="60" height="30" as="geometry" />
        </mxCell>
        <mxCell id="VLlH7Ppr8rD8z25U6Jns-99" value="false" style="text;html=1;align=center;verticalAlign=middle;whiteSpace=wrap;rounded=0;" vertex="1" parent="VLlH7Ppr8rD8z25U6Jns-80">
          <mxGeometry x="400" y="100" width="60" height="30" as="geometry" />
        </mxCell>
        <mxCell id="VLlH7Ppr8rD8z25U6Jns-100" value="is Error?" style="text;html=1;align=center;verticalAlign=middle;whiteSpace=wrap;rounded=0;" vertex="1" parent="VLlH7Ppr8rD8z25U6Jns-80">
          <mxGeometry x="180" y="250" width="60" height="30" as="geometry" />
        </mxCell>
        <mxCell id="VLlH7Ppr8rD8z25U6Jns-102" value="is Error?" style="text;html=1;align=center;verticalAlign=middle;whiteSpace=wrap;rounded=0;" vertex="1" parent="VLlH7Ppr8rD8z25U6Jns-80">
          <mxGeometry x="470" y="250" width="60" height="30" as="geometry" />
        </mxCell>
        <mxCell id="VLlH7Ppr8rD8z25U6Jns-109" value="true" style="text;html=1;align=center;verticalAlign=middle;whiteSpace=wrap;rounded=0;" vertex="1" parent="VLlH7Ppr8rD8z25U6Jns-80">
          <mxGeometry x="380" y="300" width="60" height="30" as="geometry" />
        </mxCell>
        <mxCell id="VLlH7Ppr8rD8z25U6Jns-110" value="" style="endArrow=none;html=1;rounded=0;exitX=1;exitY=0.5;exitDx=0;exitDy=0;" edge="1" parent="VLlH7Ppr8rD8z25U6Jns-80" source="VLlH7Ppr8rD8z25U6Jns-94">
          <mxGeometry width="50" height="50" relative="1" as="geometry">
            <mxPoint x="520" y="410" as="sourcePoint" />
            <mxPoint x="30" y="320" as="targetPoint" />
            <Array as="points">
              <mxPoint x="570" y="320" />
              <mxPoint x="570" y="470" />
              <mxPoint x="30" y="470" />
            </Array>
          </mxGeometry>
        </mxCell>
        <mxCell id="VLlH7Ppr8rD8z25U6Jns-111" value="false" style="text;html=1;align=center;verticalAlign=middle;whiteSpace=wrap;rounded=0;" vertex="1" parent="VLlH7Ppr8rD8z25U6Jns-80">
          <mxGeometry x="510" y="300" width="60" height="30" as="geometry" />
        </mxCell>
        <mxCell id="VLlH7Ppr8rD8z25U6Jns-135" value="false" style="text;html=1;align=center;verticalAlign=middle;whiteSpace=wrap;rounded=0;" vertex="1" parent="VLlH7Ppr8rD8z25U6Jns-80">
          <mxGeometry x="219" y="300" width="60" height="30" as="geometry" />
        </mxCell>
        <mxCell id="VLlH7Ppr8rD8z25U6Jns-84" value="" style="endArrow=classic;html=1;rounded=0;entryX=0.5;entryY=0;entryDx=0;entryDy=0;" edge="1" parent="VLlH7Ppr8rD8z25U6Jns-45" target="VLlH7Ppr8rD8z25U6Jns-83">
          <mxGeometry width="50" height="50" relative="1" as="geometry">
            <mxPoint x="810" y="320" as="sourcePoint" />
            <mxPoint x="570" y="650" as="targetPoint" />
            <Array as="points">
              <mxPoint x="810" y="320" />
              <mxPoint x="940" y="320" />
              <mxPoint x="940" y="380" />
              <mxPoint x="830" y="380" />
              <mxPoint x="830" y="520" />
              <mxPoint x="1091" y="520" />
            </Array>
          </mxGeometry>
        </mxCell>
        <UserObject label="Waiting Player 2 move" treeRoot="1" id="VLlH7Ppr8rD8z25U6Jns-87">
          <mxCell style="whiteSpace=wrap;html=1;align=center;treeFolding=1;treeMoving=1;newEdgeStyle={&quot;edgeStyle&quot;:&quot;elbowEdgeStyle&quot;,&quot;startArrow&quot;:&quot;none&quot;,&quot;endArrow&quot;:&quot;none&quot;};" vertex="1" parent="VLlH7Ppr8rD8z25U6Jns-45">
            <mxGeometry x="210" y="390" width="120" height="60" as="geometry" />
          </mxCell>
        </UserObject>
        <mxCell id="VLlH7Ppr8rD8z25U6Jns-114" value="" style="swimlane;startSize=0;" vertex="1" parent="VLlH7Ppr8rD8z25U6Jns-45">
          <mxGeometry x="310" y="760" width="390" height="480" as="geometry" />
        </mxCell>
        <mxCell id="VLlH7Ppr8rD8z25U6Jns-115" value="" style="rhombus;whiteSpace=wrap;html=1;" vertex="1" parent="VLlH7Ppr8rD8z25U6Jns-114">
          <mxGeometry x="170" y="100" width="80" height="80" as="geometry" />
        </mxCell>
        <mxCell id="VLlH7Ppr8rD8z25U6Jns-118" value="isVictory?" style="text;html=1;align=center;verticalAlign=middle;whiteSpace=wrap;rounded=0;" vertex="1" parent="VLlH7Ppr8rD8z25U6Jns-114">
          <mxGeometry x="250" y="115" width="60" height="30" as="geometry" />
        </mxCell>
        <mxCell id="VLlH7Ppr8rD8z25U6Jns-120" value="false" style="text;html=1;align=center;verticalAlign=middle;whiteSpace=wrap;rounded=0;" vertex="1" parent="VLlH7Ppr8rD8z25U6Jns-114">
          <mxGeometry x="200" y="70" width="60" height="30" as="geometry" />
        </mxCell>
        <mxCell id="VLlH7Ppr8rD8z25U6Jns-126" value="true" style="text;html=1;align=center;verticalAlign=middle;whiteSpace=wrap;rounded=0;" vertex="1" parent="VLlH7Ppr8rD8z25U6Jns-114">
          <mxGeometry x="210" y="210" width="60" height="30" as="geometry" />
        </mxCell>
        <mxCell id="VLlH7Ppr8rD8z25U6Jns-132" value="" style="rhombus;whiteSpace=wrap;html=1;" vertex="1" parent="VLlH7Ppr8rD8z25U6Jns-114">
          <mxGeometry x="155" y="330" width="80" height="80" as="geometry" />
        </mxCell>
        <mxCell id="VLlH7Ppr8rD8z25U6Jns-138" value="true" style="text;html=1;align=center;verticalAlign=middle;whiteSpace=wrap;rounded=0;" vertex="1" parent="VLlH7Ppr8rD8z25U6Jns-114">
          <mxGeometry x="180" y="440" width="60" height="30" as="geometry" />
        </mxCell>
        <mxCell id="VLlH7Ppr8rD8z25U6Jns-140" value="false" style="text;html=1;align=center;verticalAlign=middle;whiteSpace=wrap;rounded=0;" vertex="1" parent="VLlH7Ppr8rD8z25U6Jns-114">
          <mxGeometry x="190" y="300" width="60" height="30" as="geometry" />
        </mxCell>
        <mxCell id="VLlH7Ppr8rD8z25U6Jns-141" value="isVictory?" style="text;html=1;align=center;verticalAlign=middle;whiteSpace=wrap;rounded=0;" vertex="1" parent="VLlH7Ppr8rD8z25U6Jns-114">
          <mxGeometry x="250" y="340" width="60" height="30" as="geometry" />
        </mxCell>
        <mxCell id="VLlH7Ppr8rD8z25U6Jns-142" value="Check State" style="text;html=1;align=center;verticalAlign=middle;whiteSpace=wrap;rounded=0;" vertex="1" parent="VLlH7Ppr8rD8z25U6Jns-114">
          <mxGeometry x="10" y="10" width="60" height="30" as="geometry" />
        </mxCell>
        <UserObject label="Waiting Player Response" treeRoot="1" id="VLlH7Ppr8rD8z25U6Jns-122">
          <mxCell style="whiteSpace=wrap;html=1;align=center;treeFolding=1;treeMoving=1;newEdgeStyle={&quot;edgeStyle&quot;:&quot;elbowEdgeStyle&quot;,&quot;startArrow&quot;:&quot;none&quot;,&quot;endArrow&quot;:&quot;none&quot;};" vertex="1" parent="VLlH7Ppr8rD8z25U6Jns-45">
            <mxGeometry x="130" y="960" width="120" height="60" as="geometry" />
          </mxCell>
        </UserObject>
        <mxCell id="VLlH7Ppr8rD8z25U6Jns-124" value="" style="endArrow=classic;html=1;rounded=0;exitX=0.182;exitY=1.028;exitDx=0;exitDy=0;exitPerimeter=0;" edge="1" parent="VLlH7Ppr8rD8z25U6Jns-45" source="VLlH7Ppr8rD8z25U6Jns-120" target="VLlH7Ppr8rD8z25U6Jns-37">
          <mxGeometry width="50" height="50" relative="1" as="geometry">
            <mxPoint x="690" y="1060" as="sourcePoint" />
            <mxPoint x="740" y="1010" as="targetPoint" />
            <Array as="points">
              <mxPoint x="520" y="810" />
              <mxPoint x="170" y="810" />
              <mxPoint x="170" y="340" />
              <mxPoint x="270" y="340" />
            </Array>
          </mxGeometry>
        </mxCell>
        <mxCell id="VLlH7Ppr8rD8z25U6Jns-125" value="" style="endArrow=classic;html=1;rounded=0;exitX=0.5;exitY=1;exitDx=0;exitDy=0;entryX=1;entryY=0.5;entryDx=0;entryDy=0;" edge="1" parent="VLlH7Ppr8rD8z25U6Jns-45" source="VLlH7Ppr8rD8z25U6Jns-115" target="VLlH7Ppr8rD8z25U6Jns-122">
          <mxGeometry width="50" height="50" relative="1" as="geometry">
            <mxPoint x="800" y="780" as="sourcePoint" />
            <mxPoint x="850" y="730" as="targetPoint" />
            <Array as="points">
              <mxPoint x="520" y="990" />
            </Array>
          </mxGeometry>
        </mxCell>
        <mxCell id="VLlH7Ppr8rD8z25U6Jns-133" value="" style="endArrow=classic;html=1;rounded=0;entryX=1;entryY=0.5;entryDx=0;entryDy=0;exitX=1;exitY=0.5;exitDx=0;exitDy=0;" edge="1" parent="VLlH7Ppr8rD8z25U6Jns-45" source="VLlH7Ppr8rD8z25U6Jns-93" target="VLlH7Ppr8rD8z25U6Jns-132">
          <mxGeometry width="50" height="50" relative="1" as="geometry">
            <mxPoint x="800" y="870" as="sourcePoint" />
            <mxPoint x="850" y="820" as="targetPoint" />
            <Array as="points">
              <mxPoint x="1030" y="900" />
              <mxPoint x="1030" y="1020" />
              <mxPoint x="630" y="1020" />
              <mxPoint x="630" y="1130" />
            </Array>
          </mxGeometry>
        </mxCell>
        <mxCell id="VLlH7Ppr8rD8z25U6Jns-139" value="" style="endArrow=classic;html=1;rounded=0;exitX=0.5;exitY=0;exitDx=0;exitDy=0;entryX=0.5;entryY=1;entryDx=0;entryDy=0;" edge="1" parent="VLlH7Ppr8rD8z25U6Jns-45" source="VLlH7Ppr8rD8z25U6Jns-132" target="VLlH7Ppr8rD8z25U6Jns-87">
          <mxGeometry width="50" height="50" relative="1" as="geometry">
            <mxPoint x="340" y="900" as="sourcePoint" />
            <mxPoint x="390" y="850" as="targetPoint" />
            <Array as="points">
              <mxPoint x="505" y="1060" />
              <mxPoint x="270" y="1060" />
            </Array>
          </mxGeometry>
        </mxCell>
        <mxCell id="VLlH7Ppr8rD8z25U6Jns-146" value="Game" style="text;html=1;align=center;verticalAlign=middle;whiteSpace=wrap;rounded=0;" vertex="1" parent="VLlH7Ppr8rD8z25U6Jns-45">
          <mxGeometry x="30" y="25" width="60" height="30" as="geometry" />
        </mxCell>
        <mxCell id="VLlH7Ppr8rD8z25U6Jns-55" value="" style="group" vertex="1" connectable="0" parent="1">
          <mxGeometry x="100" y="210" width="170" height="110" as="geometry" />
        </mxCell>
        <UserObject label="Waiting Players" treeRoot="1" id="VLlH7Ppr8rD8z25U6Jns-22">
          <mxCell style="whiteSpace=wrap;html=1;align=center;treeFolding=1;treeMoving=1;newEdgeStyle={&quot;edgeStyle&quot;:&quot;elbowEdgeStyle&quot;,&quot;startArrow&quot;:&quot;none&quot;,&quot;endArrow&quot;:&quot;none&quot;};" vertex="1" parent="VLlH7Ppr8rD8z25U6Jns-55">
            <mxGeometry width="120" height="60" as="geometry" />
          </mxCell>
        </UserObject>
        <mxCell id="VLlH7Ppr8rD8z25U6Jns-52" value="" style="endArrow=classic;html=1;rounded=0;exitX=1;exitY=0.5;exitDx=0;exitDy=0;entryX=0.75;entryY=1;entryDx=0;entryDy=0;" edge="1" parent="VLlH7Ppr8rD8z25U6Jns-55" source="VLlH7Ppr8rD8z25U6Jns-22" target="VLlH7Ppr8rD8z25U6Jns-22">
          <mxGeometry width="50" height="50" relative="1" as="geometry">
            <mxPoint x="120" y="120" as="sourcePoint" />
            <mxPoint x="100" y="70" as="targetPoint" />
            <Array as="points">
              <mxPoint x="160" y="30" />
              <mxPoint x="160" y="80" />
              <mxPoint x="90" y="80" />
            </Array>
          </mxGeometry>
        </mxCell>
        <mxCell id="VLlH7Ppr8rD8z25U6Jns-53" value="on User Connection" style="text;html=1;align=center;verticalAlign=middle;whiteSpace=wrap;rounded=0;" vertex="1" parent="VLlH7Ppr8rD8z25U6Jns-55">
          <mxGeometry x="70" y="80" width="100" height="30" as="geometry" />
        </mxCell>
        <mxCell id="VLlH7Ppr8rD8z25U6Jns-56" value="" style="group" vertex="1" connectable="0" parent="1">
          <mxGeometry x="80" y="75" width="200" height="165" as="geometry" />
        </mxCell>
        <mxCell id="VLlH7Ppr8rD8z25U6Jns-46" value="" style="endArrow=classic;html=1;rounded=0;exitX=0.5;exitY=0;exitDx=0;exitDy=0;entryX=0.5;entryY=1;entryDx=0;entryDy=0;" edge="1" parent="VLlH7Ppr8rD8z25U6Jns-56" source="VLlH7Ppr8rD8z25U6Jns-22" target="VLlH7Ppr8rD8z25U6Jns-48">
          <mxGeometry width="50" height="50" relative="1" as="geometry">
            <mxPoint x="180" y="135" as="sourcePoint" />
            <mxPoint x="130" y="35" as="targetPoint" />
          </mxGeometry>
        </mxCell>
        <UserObject label="User Session&lt;div&gt;Created&lt;/div&gt;" treeRoot="1" id="VLlH7Ppr8rD8z25U6Jns-48">
          <mxCell style="whiteSpace=wrap;html=1;align=center;treeFolding=1;treeMoving=1;newEdgeStyle={&quot;edgeStyle&quot;:&quot;elbowEdgeStyle&quot;,&quot;startArrow&quot;:&quot;none&quot;,&quot;endArrow&quot;:&quot;none&quot;};" vertex="1" parent="VLlH7Ppr8rD8z25U6Jns-56">
            <mxGeometry x="20" width="120" height="60" as="geometry" />
          </mxCell>
        </UserObject>
        <mxCell id="VLlH7Ppr8rD8z25U6Jns-49" value="on User Connection" style="text;html=1;align=center;verticalAlign=middle;whiteSpace=wrap;rounded=0;" vertex="1" parent="VLlH7Ppr8rD8z25U6Jns-56">
          <mxGeometry y="85" width="100" height="30" as="geometry" />
        </mxCell>
        <mxCell id="VLlH7Ppr8rD8z25U6Jns-50" value="" style="endArrow=classic;html=1;rounded=0;exitX=1;exitY=0.5;exitDx=0;exitDy=0;" edge="1" parent="VLlH7Ppr8rD8z25U6Jns-56" source="VLlH7Ppr8rD8z25U6Jns-48">
          <mxGeometry width="50" height="50" relative="1" as="geometry">
            <mxPoint x="170" y="205" as="sourcePoint" />
            <mxPoint x="200" y="165" as="targetPoint" />
          </mxGeometry>
        </mxCell>
        <mxCell id="VLlH7Ppr8rD8z25U6Jns-57" value="" style="group" vertex="1" connectable="0" parent="1">
          <mxGeometry x="280" y="120" width="290" height="250" as="geometry" />
        </mxCell>
        <UserObject label="Player 1&lt;div&gt;Waiting opponent&lt;/div&gt;" treeRoot="1" id="VLlH7Ppr8rD8z25U6Jns-23">
          <mxCell style="whiteSpace=wrap;html=1;align=center;treeFolding=1;treeMoving=1;newEdgeStyle={&quot;edgeStyle&quot;:&quot;elbowEdgeStyle&quot;,&quot;startArrow&quot;:&quot;none&quot;,&quot;endArrow&quot;:&quot;none&quot;};" vertex="1" parent="VLlH7Ppr8rD8z25U6Jns-57">
            <mxGeometry x="110" y="10" width="120" height="60" as="geometry" />
          </mxCell>
        </UserObject>
        <UserObject label="Player 2&lt;div&gt;Waiting the start&lt;/div&gt;" treeRoot="1" id="VLlH7Ppr8rD8z25U6Jns-24">
          <mxCell style="whiteSpace=wrap;html=1;align=center;treeFolding=1;treeMoving=1;newEdgeStyle={&quot;edgeStyle&quot;:&quot;elbowEdgeStyle&quot;,&quot;startArrow&quot;:&quot;none&quot;,&quot;endArrow&quot;:&quot;none&quot;};" vertex="1" parent="VLlH7Ppr8rD8z25U6Jns-57">
            <mxGeometry x="110" y="150" width="120" height="60" as="geometry" />
          </mxCell>
        </UserObject>
        <mxCell id="VLlH7Ppr8rD8z25U6Jns-25" value="Enters lobby" style="text;html=1;align=center;verticalAlign=middle;whiteSpace=wrap;rounded=0;rotation=30;" vertex="1" parent="VLlH7Ppr8rD8z25U6Jns-57">
          <mxGeometry x="30" y="130" width="70" height="30" as="geometry" />
        </mxCell>
        <mxCell id="VLlH7Ppr8rD8z25U6Jns-27" value="Creates lobby" style="text;html=1;align=center;verticalAlign=middle;resizable=0;points=[];autosize=1;strokeColor=none;fillColor=none;rotation=325;" vertex="1" parent="VLlH7Ppr8rD8z25U6Jns-57">
          <mxGeometry y="60" width="100" height="30" as="geometry" />
        </mxCell>
        <mxCell id="VLlH7Ppr8rD8z25U6Jns-31" value="" style="endArrow=none;html=1;rounded=0;" edge="1" parent="VLlH7Ppr8rD8z25U6Jns-57">
          <mxGeometry width="50" height="50" relative="1" as="geometry">
            <mxPoint as="sourcePoint" />
            <mxPoint y="250" as="targetPoint" />
          </mxGeometry>
        </mxCell>
        <mxCell id="VLlH7Ppr8rD8z25U6Jns-32" value="" style="endArrow=classic;html=1;rounded=0;entryX=0;entryY=0.5;entryDx=0;entryDy=0;" edge="1" parent="VLlH7Ppr8rD8z25U6Jns-57" target="VLlH7Ppr8rD8z25U6Jns-23">
          <mxGeometry width="50" height="50" relative="1" as="geometry">
            <mxPoint y="120" as="sourcePoint" />
            <mxPoint x="180" y="30" as="targetPoint" />
          </mxGeometry>
        </mxCell>
        <mxCell id="VLlH7Ppr8rD8z25U6Jns-33" value="" style="endArrow=classic;html=1;rounded=0;entryX=0;entryY=0.5;entryDx=0;entryDy=0;" edge="1" parent="VLlH7Ppr8rD8z25U6Jns-57" target="VLlH7Ppr8rD8z25U6Jns-24">
          <mxGeometry width="50" height="50" relative="1" as="geometry">
            <mxPoint y="120" as="sourcePoint" />
            <mxPoint x="180" y="30" as="targetPoint" />
          </mxGeometry>
        </mxCell>
        <mxCell id="VLlH7Ppr8rD8z25U6Jns-34" value="" style="endArrow=classic;html=1;rounded=0;exitX=1;exitY=0.5;exitDx=0;exitDy=0;" edge="1" parent="VLlH7Ppr8rD8z25U6Jns-57" source="VLlH7Ppr8rD8z25U6Jns-23">
          <mxGeometry width="50" height="50" relative="1" as="geometry">
            <mxPoint x="130" y="80" as="sourcePoint" />
            <mxPoint x="290" y="120" as="targetPoint" />
          </mxGeometry>
        </mxCell>
        <mxCell id="VLlH7Ppr8rD8z25U6Jns-35" value="" style="endArrow=classic;html=1;rounded=0;exitX=1;exitY=0.5;exitDx=0;exitDy=0;" edge="1" parent="VLlH7Ppr8rD8z25U6Jns-57" source="VLlH7Ppr8rD8z25U6Jns-24">
          <mxGeometry width="50" height="50" relative="1" as="geometry">
            <mxPoint x="130" y="80" as="sourcePoint" />
            <mxPoint x="290" y="120" as="targetPoint" />
          </mxGeometry>
        </mxCell>
        <mxCell id="VLlH7Ppr8rD8z25U6Jns-58" value="" style="group" vertex="1" connectable="0" parent="1">
          <mxGeometry x="570" y="120" width="120" height="250" as="geometry" />
        </mxCell>
        <mxCell id="VLlH7Ppr8rD8z25U6Jns-29" value="" style="endArrow=none;html=1;rounded=0;" edge="1" parent="VLlH7Ppr8rD8z25U6Jns-58">
          <mxGeometry width="50" height="50" relative="1" as="geometry">
            <mxPoint as="sourcePoint" />
            <mxPoint y="250" as="targetPoint" />
          </mxGeometry>
        </mxCell>
        <mxCell id="VLlH7Ppr8rD8z25U6Jns-39" value="" style="endArrow=classic;html=1;rounded=0;entryX=0;entryY=0.5;entryDx=0;entryDy=0;" edge="1" parent="VLlH7Ppr8rD8z25U6Jns-58" target="VLlH7Ppr8rD8z25U6Jns-38">
          <mxGeometry width="50" height="50" relative="1" as="geometry">
            <mxPoint y="120" as="sourcePoint" />
            <mxPoint x="150" y="140" as="targetPoint" />
          </mxGeometry>
        </mxCell>
        <mxCell id="VLlH7Ppr8rD8z25U6Jns-42" value="Match start" style="text;html=1;align=center;verticalAlign=middle;whiteSpace=wrap;rounded=0;" vertex="1" parent="VLlH7Ppr8rD8z25U6Jns-58">
          <mxGeometry x="50" y="90" width="70" height="40" as="geometry" />
        </mxCell>
        <mxCell id="VLlH7Ppr8rD8z25U6Jns-104" value="true" style="text;html=1;align=center;verticalAlign=middle;whiteSpace=wrap;rounded=0;" vertex="1" parent="1">
          <mxGeometry x="1491" y="740" width="100" height="100" as="geometry" />
        </mxCell>
        <mxCell id="VLlH7Ppr8rD8z25U6Jns-108" value="" style="endArrow=none;html=1;rounded=0;entryX=0;entryY=0.5;entryDx=0;entryDy=0;" edge="1" parent="1" target="VLlH7Ppr8rD8z25U6Jns-94">
          <mxGeometry width="50" height="50" relative="1" as="geometry">
            <mxPoint x="1720" y="920" as="sourcePoint" />
            <mxPoint x="1571" y="660" as="targetPoint" />
            <Array as="points">
              <mxPoint x="1841" y="920" />
              <mxPoint x="1841" y="800" />
            </Array>
          </mxGeometry>
        </mxCell>
        <mxCell id="VLlH7Ppr8rD8z25U6Jns-123" value="" style="endArrow=classic;html=1;rounded=0;entryX=1;entryY=0.5;entryDx=0;entryDy=0;exitX=0.89;exitY=0.6;exitDx=0;exitDy=0;exitPerimeter=0;" edge="1" parent="1" source="VLlH7Ppr8rD8z25U6Jns-104" target="VLlH7Ppr8rD8z25U6Jns-115">
          <mxGeometry width="50" height="50" relative="1" as="geometry">
            <mxPoint x="1380" y="960" as="sourcePoint" />
            <mxPoint x="1430" y="910" as="targetPoint" />
          </mxGeometry>
        </mxCell>
        <mxCell id="VLlH7Ppr8rD8z25U6Jns-137" value="" style="endArrow=none;html=1;rounded=0;exitX=0.5;exitY=1;exitDx=0;exitDy=0;" edge="1" parent="1" source="VLlH7Ppr8rD8z25U6Jns-132">
          <mxGeometry width="50" height="50" relative="1" as="geometry">
            <mxPoint x="1030" y="800" as="sourcePoint" />
            <mxPoint x="1060" y="890" as="targetPoint" />
            <Array as="points">
              <mxPoint x="1195" y="1130" />
              <mxPoint x="1060" y="1130" />
            </Array>
          </mxGeometry>
        </mxCell>
        <mxCell id="VLlH7Ppr8rD8z25U6Jns-143" value="" style="endArrow=classic;html=1;rounded=0;exitX=0;exitY=0.5;exitDx=0;exitDy=0;" edge="1" parent="1" source="VLlH7Ppr8rD8z25U6Jns-122" target="VLlH7Ppr8rD8z25U6Jns-23">
          <mxGeometry width="50" height="50" relative="1" as="geometry">
            <mxPoint x="530" y="930" as="sourcePoint" />
            <mxPoint x="550" y="450" as="targetPoint" />
            <Array as="points">
              <mxPoint x="390" y="890" />
              <mxPoint x="390" y="510" />
              <mxPoint x="-190" y="510" />
              <mxPoint x="-190" y="-190" />
              <mxPoint x="450" y="-190" />
            </Array>
          </mxGeometry>
        </mxCell>
        <mxCell id="VLlH7Ppr8rD8z25U6Jns-145" value="next" style="edgeLabel;html=1;align=center;verticalAlign=middle;resizable=0;points=[];" vertex="1" connectable="0" parent="VLlH7Ppr8rD8z25U6Jns-143">
          <mxGeometry x="-0.9632" y="1" relative="1" as="geometry">
            <mxPoint x="6" y="-11" as="offset" />
          </mxGeometry>
        </mxCell>
      </root>
    </mxGraphModel>
  </diagram>
</mxfile>
